<svg width="48" height="28" viewBox="0 0 48 28" fill="none" xmlns="http://www.w3.org/2000/svg">
<path d="M0.64 1.4H22.2V7.64H21.28C21.2267 6.70667 21.08 5.88 20.84 5.16C20.6 4.44 20.1467 3.88 19.48 3.48C18.8133 3.05333 17.8 2.84 16.44 2.84H13.12V24C13.12 24.9067 13.2133 25.5733 13.4 26C13.6133 26.4267 13.9867 26.7067 14.52 26.84C15.08 26.9733 15.88 27.0533 16.92 27.08V28H6.92V27.08C7.64 27.0533 8.2 26.9733 8.6 26.84C9.02667 26.7067 9.32 26.4267 9.48 26C9.64 25.5733 9.72 24.9067 9.72 24V2.84H6.36C5.02667 2.84 4.02667 3.05333 3.36 3.48C2.69333 3.88 2.24 4.44 2 5.16C1.76 5.88 1.61333 6.70667 1.56 7.64H0.64V1.4ZM43.9622 24C44.2822 24.9333 44.5889 25.6133 44.8822 26.04C45.1755 26.44 45.5222 26.7067 45.9222 26.84C46.3489 26.9467 46.9089 27.0267 47.6022 27.08V28H38.0422V27.08C38.9489 27.0267 39.6155 26.9333 40.0422 26.8C40.4955 26.6667 40.7489 26.3867 40.8022 25.96C40.8555 25.5333 40.7222 24.88 40.4022 24L38.1222 17.12C37.9889 17.2533 37.7889 17.3467 37.5222 17.4C37.2555 17.4267 36.9755 17.44 36.6822 17.44H31.4422C30.8555 17.44 30.4155 17.5067 30.1222 17.64C29.8289 17.7733 29.5755 18.1333 29.3622 18.72L27.4822 24C27.1355 25.0133 27.1355 25.7733 27.4822 26.28C27.8555 26.76 28.8955 27.0267 30.6022 27.08V28H22.3222V27.08C23.1755 27.0267 23.8422 26.76 24.3222 26.28C24.8289 25.7733 25.2689 25.0133 25.6422 24L32.7222 4.56C32.9889 3.86667 33.2422 3.18667 33.4822 2.52C33.7222 1.85333 33.9355 1.17333 34.1222 0.479999H36.0822C36.2689 1.17333 36.4689 1.85333 36.6822 2.52C36.9222 3.18667 37.1755 3.86667 37.4422 4.56L43.9622 24ZM36.7622 16C37.1089 16 37.3489 15.96 37.4822 15.88C37.6155 15.7733 37.6155 15.56 37.4822 15.24L34.2022 5.52H34.1222L30.2822 16.12C30.4155 16.0667 30.5755 16.04 30.7622 16.04C30.9489 16.0133 31.1622 16 31.4022 16H36.7622Z" fill="#ED4A45"/>
</svg>
