<svg width="151" height="61" viewBox="0 0 151 61" fill="none" xmlns="http://www.w3.org/2000/svg">
<rect x="1.86188" y="8" width="86" height="46" rx="4" stroke="#EEEBE7" stroke-width="2"/>
<rect x="13.8989" width="61.4568" height="61" fill="#282828"/>
<circle cx="44.8619" cy="31" r="28.5" fill="#282828" stroke="#EEEBE7" stroke-width="3"/>
<circle cx="44.8619" cy="31" r="23" fill="#282828" stroke="#EEEBE7" stroke-width="2"/>
<path d="M40.8299 12.0947C38.1915 12.5584 35.7 13.639 33.5586 15.2484C31.4171 16.8578 29.6863 18.9506 28.5073 21.356L30.0338 22.1042C31.0949 19.9393 32.6526 18.0559 34.5799 16.6074C36.5073 15.1589 38.7496 14.1864 41.1242 13.7691L40.8299 12.0947Z" fill="#EEEBE7"/>
<path d="M61.1409 36.2413C61.8264 37.0879 61.8353 38.5228 61.023 40.3107C60.2245 42.0682 58.6887 44.0175 56.5899 45.717C54.4911 47.4166 52.2651 48.5135 50.38 48.9292C48.4623 49.3521 47.0606 49.045 46.3751 48.1984C45.6896 47.3519 45.6806 45.917 46.4929 44.1291C47.2915 42.3716 48.8272 40.4223 50.926 38.7227C53.0248 37.0232 55.2508 35.9262 57.1359 35.5106C59.0536 35.0877 60.4553 35.3948 61.1409 36.2413Z" fill="#EEEBE7" stroke="#EEEBE7"/>
<path d="M46.7249 24.8658C46.7724 24.9245 46.8269 25.0563 46.7755 25.3386C46.7245 25.6189 46.5784 25.9815 46.323 26.4063C45.8144 27.2522 44.9303 28.2491 43.7831 29.1781C42.6359 30.1071 41.4769 30.7646 40.5438 31.0862C40.0752 31.2477 39.6901 31.3153 39.4054 31.3069C39.1185 31.2984 39.001 31.2177 38.9534 31.159C38.9058 31.1003 38.8514 30.9685 38.9027 30.6862C38.9537 30.4059 39.0998 30.0433 39.3553 29.6185C39.8638 28.7726 40.748 27.7757 41.8952 26.8467C43.0423 25.9177 44.2014 25.2602 45.1345 24.9386C45.6031 24.7771 45.9882 24.7095 46.2729 24.7179C46.5598 24.7264 46.6773 24.8071 46.7249 24.8658Z" fill="#EEEBE7" stroke="#EEEBE7"/>
<path d="M47.5232 30.4851C47.6005 30.5805 47.6677 30.8423 47.4412 31.3408C47.2286 31.8089 46.8063 32.3524 46.2097 32.8355C45.6131 33.3186 44.9937 33.6187 44.4916 33.7294C43.9569 33.8473 43.7148 33.7271 43.6375 33.6317C43.5602 33.5362 43.493 33.2744 43.7195 32.7759C43.9322 32.3078 44.3545 31.7643 44.9511 31.2812C45.5476 30.7981 46.1671 30.498 46.6691 30.3873C47.2038 30.2694 47.446 30.3896 47.5232 30.4851Z" fill="#EEEBE7" stroke="#EEEBE7"/>
<path d="M99.5019 18.4H121.062V24.64H120.142C120.089 23.7067 119.942 22.88 119.702 22.16C119.462 21.44 119.009 20.88 118.342 20.48C117.675 20.0533 116.662 19.84 115.302 19.84H111.982V41C111.982 41.9067 112.075 42.5733 112.262 43C112.475 43.4267 112.849 43.7067 113.382 43.84C113.942 43.9733 114.742 44.0533 115.782 44.08V45H105.782V44.08C106.502 44.0533 107.062 43.9733 107.462 43.84C107.889 43.7067 108.182 43.4267 108.342 43C108.502 42.5733 108.582 41.9067 108.582 41V19.84H105.222C103.889 19.84 102.889 20.0533 102.222 20.48C101.555 20.88 101.102 21.44 100.862 22.16C100.622 22.88 100.475 23.7067 100.422 24.64H99.5019V18.4ZM142.824 41C143.144 41.9333 143.451 42.6133 143.744 43.04C144.037 43.44 144.384 43.7067 144.784 43.84C145.211 43.9467 145.771 44.0267 146.464 44.08V45H136.904V44.08C137.811 44.0267 138.477 43.9333 138.904 43.8C139.357 43.6667 139.611 43.3867 139.664 42.96C139.717 42.5333 139.584 41.88 139.264 41L136.984 34.12C136.851 34.2533 136.651 34.3467 136.384 34.4C136.117 34.4267 135.837 34.44 135.544 34.44H130.304C129.717 34.44 129.277 34.5067 128.984 34.64C128.691 34.7733 128.437 35.1333 128.224 35.72L126.344 41C125.997 42.0133 125.997 42.7733 126.344 43.28C126.717 43.76 127.757 44.0267 129.464 44.08V45H121.184V44.08C122.037 44.0267 122.704 43.76 123.184 43.28C123.691 42.7733 124.131 42.0133 124.504 41L131.584 21.56C131.851 20.8667 132.104 20.1867 132.344 19.52C132.584 18.8533 132.797 18.1733 132.984 17.48H134.944C135.131 18.1733 135.331 18.8533 135.544 19.52C135.784 20.1867 136.037 20.8667 136.304 21.56L142.824 41ZM135.624 33C135.971 33 136.211 32.96 136.344 32.88C136.477 32.7733 136.477 32.56 136.344 32.24L133.064 22.52H132.984L129.144 33.12C129.277 33.0667 129.437 33.04 129.624 33.04C129.811 33.0133 130.024 33 130.264 33H135.624Z" fill="#ED4A45"/>
</svg>
